<?xml version="1.0" encoding="utf-8"?>
<!-- Generator: Adobe Illustrator 18.0.0, SVG Export Plug-In . SVG Version: 6.00 Build 0)  -->
<!DOCTYPE svg PUBLIC "-//W3C//DTD SVG 1.1//EN" "http://www.w3.org/Graphics/SVG/1.1/DTD/svg11.dtd">
<svg version="1.1" id="Layer_1" xmlns="http://www.w3.org/2000/svg" xmlns:xlink="http://www.w3.org/1999/xlink" x="0px" y="0px"
	 viewBox="0 344.1 612 104" enable-background="new 0 344.1 612 104" xml:space="preserve">
<g>
	<g>
		<path fill="#FFFFFF" d="M63,446.4H0v-9.6h10.8v-77.7H0v-9.9h32.7v9.9H21.9v77.7h30.6v-6.3H63V446.4z"/>
		<path fill="#FFFFFF" d="M106.7,446.4H74.4v-9.9h11.1v-41.4H74.4v-9.9H96v51.3h10.5v9.9H106.7z M96,374.1H85.2v-10.8H96V374.1z"/>
		<path fill="#FFFFFF" d="M155.9,446.4h-10.8L122,394.8h-11.1v-9.6h31.8v9.6H134l16.8,38.4l17.4-38.4h-9v-9.6H191v9.6h-11.1
			L155.9,446.4z"/>
		<path fill="#FFFFFF" d="M227.3,447.9c-9.9,0-18-3.6-23.4-10.5c-4.8-6-7.2-12.9-7.2-21v-1.8c0-9,2.7-16.5,8.1-22.2
			c5.4-5.7,12.6-8.7,21.6-8.7s16.2,2.7,21.6,8.4c5.4,5.4,8.1,12.9,8.1,21.9c0,2.4,0,4.2,0,4.8h-48.6c0.3,5.4,2.4,9.9,6.3,13.2
			c3.6,3.3,8.4,5.1,13.8,5.1c5.4,0,9.6-1.5,12.9-4.8c0.9-0.9,2.1-2.4,3.3-4.5h11.1c-1.2,4.5-3.6,8.1-6.6,11.4
			C242.9,445.2,236,447.9,227.3,447.9z M245,410.1c-0.6-4.8-2.7-8.7-6-11.4c-3.6-3-7.8-4.2-12.6-4.2c-5.1,0-9.3,1.5-12.6,4.2
			c-3.3,3-5.4,6.6-6,11.4H245z"/>
		<path fill="#FFFFFF" d="M320.2,429.3c0,6.9-3.3,11.7-9.6,15c-4.8,2.4-10.5,3.6-17.1,3.6c-7.2,0-13.2-1.8-17.1-5.4v4.2h-9.6v-16.2
			h7.8c3.9,5.1,10.5,7.8,19.2,7.8c10.8,0,16.2-3,16.2-9c0-3.6-3.6-6-11.1-7.8c-12.6-3-19.2-4.8-20.7-5.4c-7.2-3-11.1-8.1-10.8-15
			c0-6,2.7-10.5,8.4-13.5c4.5-2.4,9.6-3.6,15.3-3.6c6.9,0.3,12.3,2.1,16.5,5.7v-4.2h9.6v16.2h-7.8c-3.6-5.1-9.9-7.5-18.3-7.5
			c-3,0-5.7,0.6-7.8,1.5c-3.3,1.2-4.8,3.3-5.1,5.7c0,3.9,3.6,6.6,11.1,8.7c13.2,3.3,20.1,4.8,20.4,5.1
			C316.3,417.6,320.2,422.4,320.2,429.3z"/>
		<path fill="#FFFFFF" d="M366.1,446.7h-3.3c-7.8,0-14.4-2.1-19.5-6.3c-6.3-5.1-9.3-12.9-9.3-23.1v-52.5h10.8v20.4h20.1v9.6h-20.1
			V417c0,6.6,1.8,11.7,5.7,15c3,2.7,7.2,4.2,12.3,4.2h3.3V446.7z"/>
		<path fill="#FFFFFF" d="M436,417c0,9.3-2.7,16.5-7.8,22.2c-5.4,5.7-12.6,8.7-21.6,8.7c-9.3,0-16.5-3-21.6-8.7
			c-5.1-5.7-7.8-13.2-7.8-22.2v-1.8c0-9.3,2.7-16.8,7.8-22.5c5.1-5.7,12.3-8.7,21.6-8.7c9.3,0,16.5,3,21.6,8.7
			c5.1,5.7,7.8,13.2,7.8,22.5V417z M425.8,417v-1.8c0-6.6-1.5-11.7-4.8-15.3s-7.8-5.4-14.1-5.4c-6,0-10.8,1.8-14.1,5.4
			c-3.3,3.6-4.8,8.7-4.8,15.3v1.8c0,6.3,1.5,11.4,4.8,15c3.3,3.6,8.1,5.4,14.1,5.4c6,0,10.8-1.8,14.1-5.4
			C424,428.4,425.8,423.3,425.8,417z"/>
		<path fill="#FFFFFF" d="M504.1,426.9c-1.5,6.6-4.8,11.7-9.6,15.6c-4.8,3.9-10.8,5.7-18,5.7c-9,0-16.2-3-21.6-8.7
			c-5.4-5.7-8.1-13.2-8.1-22.2v-2.1c0-9.3,2.7-16.5,7.8-22.5c5.1-5.7,12.6-8.7,21.6-8.4c7.5,0,13.5,2.4,17.4,7.2v-6h9.6v19.8h-9.9
			c-3-7.2-8.7-10.8-17.1-10.8c-6.3,0-11.4,2.1-14.7,6.3c-3,3.6-4.5,9-4.5,15.6c0,14.4,6.3,21.9,19.2,21.9c8.4,0,14.1-3.6,17.1-11.1
			L504.1,426.9z"/>
		<path fill="#FFFFFF" d="M587.4,446.4h-32.1v-9.6h8.4l-14.1-16.5c-3.6,2.1-8.7,5.4-15.3,9.6v16.5h-21.6v-9.6h10.8v-83.1h-10.8v-9.6
			h21.6v74.1c5.7-3.6,11.4-6.9,17.1-10.5c7.5-4.8,11.4-9,12-12.9h-9.6v-9.6h32.1v9.6h-11.1c-1.8,6.9-7.2,13.8-16.5,20.1l18.3,21.9
			h10.8L587.4,446.4L587.4,446.4z"/>
	</g>
	<g>
		<g>
			<path fill="#FFFFFF" d="M596.1,394.8V387h-2.7v-1.5h7.5v1.5h-2.7v7.8H596.1z"/>
			<path fill="#FFFFFF" d="M603,394.8v-9.3h2.7l1.8,6.3l1.8-6.3h2.7v9.3h-1.8v-7.5l-1.8,7.5h-1.8l-1.8-7.5v7.5H603z"/>
		</g>
	</g>
</g>
</svg>
