<?xml version="1.0" encoding="utf-8"?>
<!-- Generator: Adobe Illustrator 18.0.0, SVG Export Plug-In . SVG Version: 6.00 Build 0)  -->
<!DOCTYPE svg PUBLIC "-//W3C//DTD SVG 1.1//EN" "http://www.w3.org/Graphics/SVG/1.1/DTD/svg11.dtd">
<svg version="1.1" id="Layer_1" xmlns="http://www.w3.org/2000/svg" xmlns:xlink="http://www.w3.org/1999/xlink" x="0px" y="0px"
	 viewBox="0 0 35.9 32.4" enable-background="new 0 0 35.9 32.4" xml:space="preserve">
<g>
	<path d="M35.9,3.2V0H12.2v6.8c-1.7,1-2.6,2.5-2.6,4.4c0,2.3,1.2,3.9,3.6,5c0.4,0.2,2.7,0.8,6.9,1.8c2.5,0.6,3.7,1.5,3.7,2.6
		c0,2-1.8,3-5.5,3c-3,0-5.1-0.9-6.4-2.6H9.2v5.4h3.2V25c1.4,1.2,3.3,1.8,5.8,1.8c0.7,0,1.4,0,2-0.1v2.4H7.1V3.2h3.5V0H0v3.2h3.5
		v25.9H0v3.2h23.8v-6.6c0.1,0,0.2-0.1,0.2-0.1c2.2-1.1,3.2-2.7,3.2-5c0-2.2-1.2-3.9-3.7-4.9c-0.1-0.1-2.4-0.6-6.8-1.7
		c-2.5-0.6-3.7-1.6-3.7-2.9c0.1-0.8,0.6-1.5,1.7-1.9c0.8-0.3,1.7-0.5,2.6-0.5c2.9,0,4.9,0.8,6.1,2.5h2.6V6H23v1.4
		c-1.4-1.2-3.3-1.8-5.5-1.9c-0.6,0-1.2,0-1.8,0.1V3.2h13.1v25.9h-3.4v3.2h10.6v-3.2h-3.5V3.2H35.9z"/>
</g>
</svg>
