<svg xmlns="http://www.w3.org/2000/svg" viewBox="0 0 35.9 32.4"><path d="M35.9 3.2V0H12.2v6.8c-1.7 1-2.6 2.5-2.6 4.4 0 2.3 1.2 3.9 3.6 5 .4.2 2.7.8 6.9 1.8 2.5.6 3.7 1.5 3.7 2.6 0 2-1.8 3-5.5 3-3 0-5.1-.9-6.4-2.6H9.2v5.4h3.2V25c1.4 1.2 3.3 1.8 5.8 1.8.7 0 1.4 0 2-.1v2.4H7.1V3.2h3.5V0H0v3.2h3.5v25.9H0v3.2h23.8v-6.6c.1 0 .2-.1.2-.1 2.2-1.1 3.2-2.7 3.2-5 0-2.2-1.2-3.9-3.7-4.9-.1-.1-2.4-.6-6.8-1.7-2.5-.6-3.7-1.6-3.7-2.9.1-.8.6-1.5 1.7-1.9.8-.3 1.7-.5 2.6-.5 2.9 0 4.9.8 6.1 2.5H26V6h-3v1.4c-1.4-1.2-3.3-1.8-5.5-1.9-.6 0-1.2 0-1.8.1V3.2h13.1v25.9h-3.4v3.2H36v-3.2h-3.5V3.2h3.4z"/></svg>